<svg xmlns="http://www.w3.org/2000/svg" width="1200" height="720" viewBox="0 0 1200 720" role="img" aria-labelledby="title desc">
  <title id="title">Codex Switch 账号管理页面示意图</title>
  <desc id="desc">展示账号列表、搜索、筛选和当前模式。</desc>
  <defs>
    <linearGradient id="bg" x1="0" x2="1" y1="0" y2="1">
      <stop offset="0" stop-color="#10141c"/>
      <stop offset="1" stop-color="#05070a"/>
    </linearGradient>
    <linearGradient id="card" x1="0" x2="1" y1="0" y2="1">
      <stop offset="0" stop-color="#1b2532"/>
      <stop offset="1" stop-color="#0d1117"/>
    </linearGradient>
  </defs>
  <rect width="1200" height="720" rx="32" fill="url(#bg)"/>
  <rect x="34" y="30" width="1132" height="74" rx="22" fill="#0b0f16" stroke="#243040"/>
  <text x="66" y="77" fill="#ffffff" font-family="Segoe UI, Arial" font-size="28" font-weight="700">Codex Switch</text>
  <rect x="360" y="47" width="86" height="38" rx="19" fill="#66cc8a"/>
  <text x="388" y="72" fill="#051008" font-family="Segoe UI, Arial" font-size="16" font-weight="700">账号</text>
  <text x="474" y="72" fill="#a1a8b3" font-family="Segoe UI, Arial" font-size="16">API</text>
  <text x="540" y="72" fill="#a1a8b3" font-family="Segoe UI, Arial" font-size="16">设置</text>
  <rect x="860" y="47" width="270" height="38" rx="19" fill="#111827" stroke="#243040"/>
  <circle cx="883" cy="66" r="6" fill="#66cc8a"/>
  <text x="902" y="72" fill="#dbe4ef" font-family="Segoe UI, Arial" font-size="15">当前：订阅模式 · Plus</text>

  <rect x="58" y="136" width="1084" height="70" rx="22" fill="#0b0f16" stroke="#243040"/>
  <rect x="84" y="153" width="300" height="36" rx="18" fill="#121821"/>
  <text x="112" y="176" fill="#7f8b99" font-family="Segoe UI, Arial" font-size="15">搜索账号...</text>
  <rect x="422" y="153" width="78" height="36" rx="18" fill="#66cc8a"/>
  <text x="446" y="176" fill="#061009" font-family="Segoe UI, Arial" font-size="15" font-weight="700">全部</text>
  <text x="526" y="176" fill="#a1a8b3" font-family="Segoe UI, Arial" font-size="15">FREE</text>
  <text x="600" y="176" fill="#a1a8b3" font-family="Segoe UI, Arial" font-size="15">PLUS</text>
  <rect x="964" y="153" width="142" height="36" rx="18" fill="#66cc8a"/>
  <text x="995" y="176" fill="#061009" font-family="Segoe UI, Arial" font-size="15" font-weight="700">+ 添加账号</text>

  <g transform="translate(58 238)">
    <rect width="334" height="180" rx="22" fill="url(#card)" stroke="#2f3a4a"/>
    <text x="28" y="44" fill="#ffffff" font-family="Segoe UI, Arial" font-size="20" font-weight="700">user***@example.com</text>
    <rect x="28" y="64" width="58" height="24" rx="12" fill="#14351f"/>
    <text x="43" y="82" fill="#66cc8a" font-family="Segoe UI, Arial" font-size="13" font-weight="700">PLUS</text>
    <text x="28" y="120" fill="#a1a8b3" font-family="Segoe UI, Arial" font-size="14">配额同步正常</text>
    <rect x="28" y="136" width="278" height="8" rx="4" fill="#141b24"/>
    <rect x="28" y="136" width="190" height="8" rx="4" fill="#66cc8a"/>
    <rect x="214" y="28" width="92" height="34" rx="17" fill="#66cc8a"/>
    <text x="245" y="51" fill="#061009" font-family="Segoe UI, Arial" font-size="14" font-weight="700">当前</text>
  </g>
  <g transform="translate(433 238)">
    <rect width="334" height="180" rx="22" fill="url(#card)" stroke="#2f3a4a"/>
    <text x="28" y="44" fill="#ffffff" font-family="Segoe UI, Arial" font-size="20" font-weight="700">team***@example.com</text>
    <rect x="28" y="64" width="58" height="24" rx="12" fill="#172a45"/>
    <text x="42" y="82" fill="#8ab4ff" font-family="Segoe UI, Arial" font-size="13" font-weight="700">TEAM</text>
    <text x="28" y="120" fill="#a1a8b3" font-family="Segoe UI, Arial" font-size="14">配额同步正常</text>
    <rect x="28" y="136" width="278" height="8" rx="4" fill="#141b24"/>
    <rect x="28" y="136" width="142" height="8" rx="4" fill="#8ab4ff"/>
    <rect x="214" y="28" width="92" height="34" rx="17" fill="#18212d"/>
    <text x="244" y="51" fill="#dbe4ef" font-family="Segoe UI, Arial" font-size="14" font-weight="700">切换</text>
  </g>
  <g transform="translate(808 238)">
    <rect width="334" height="180" rx="22" fill="url(#card)" stroke="#2f3a4a"/>
    <text x="28" y="44" fill="#ffffff" font-family="Segoe UI, Arial" font-size="20" font-weight="700">pro***@example.com</text>
    <rect x="28" y="64" width="48" height="24" rx="12" fill="#3a2613"/>
    <text x="43" y="82" fill="#f5b657" font-family="Segoe UI, Arial" font-size="13" font-weight="700">PRO</text>
    <text x="28" y="120" fill="#a1a8b3" font-family="Segoe UI, Arial" font-size="14">等待刷新配额</text>
    <rect x="28" y="136" width="278" height="8" rx="4" fill="#141b24"/>
    <rect x="28" y="136" width="72" height="8" rx="4" fill="#f5b657"/>
    <rect x="214" y="28" width="92" height="34" rx="17" fill="#18212d"/>
    <text x="244" y="51" fill="#dbe4ef" font-family="Segoe UI, Arial" font-size="14" font-weight="700">切换</text>
  </g>
</svg>
